@startuml
title 基于GitHub的实验管理平台--类图
abstract class User{
-用户ID : int
-密码 : String
-姓名 : String
-性别 : String
-头像 : Image
-出生日期 : Date
-住址 : String
-github用户名 : String
-github修改时间 : Date
-是否被禁用 : Boolean
-手机号 : int
-show()
-find()
-update()
}

class Admin{
-管理员号 : String
-showAll()
-findTeaStuClass()
-deleteTeaStuClass()
-insertTeaStuClass()
-updateTeaStuClass()
}

class Student{
-学号 : int
-学院 : String
-专业 : String
-年级 : String
-班级 : String
-学历 : String
-chooseClass()
-updateClass()
-showResult()
-showClass()
}

class Teacher{
-职工号 : int
-学院 : String
-学历 : String
-专业 : String
-chooseClass()
-updateClass()
-showResults()
-showClass()
-updateResults()
-createTest()
-setRules()
}

User <|-- Student
User <|-- Teacher
User <|-left- Admin

class lesson{
-课程编号 : int
-课程名 : String
-课程类型 : String
-课程简介 : String
-发布日期 : Date
-是否被选 : Boolean
-结课日期 : DATE
-update()
-delete()
-find()
-insert()
-show()
-count()
-sort()
}

class Test{
-实验编号 : int
-实验名 : String
-实验类型 : String
-实验简介 : String
-实验总分 : int
-发布日期 : Date
-update()
-delete()
-find()
-insert()
-show()
-count()
}

class ScoringItems{
-评分项编号 : int
-评分项名 : String
-评分项简介 : String
-评分项分数 : int
-发布日期 : Date
-update()
-delete()
-find()
-insert()
-show()
}

Teacher "0..1" o-- "0..*" lesson:选课
Student "0..*" o--"0..*" lesson:选课
lesson "1" *--"*" Test:has
Test "1" *--"*" ScoringItems:has
Teacher -- Test:创建实验 >
Teacher -- ScoringItems:设定评分项 >
lesson -up- yearAndTerm

class Score{
-分数 : double
-评阅教师职工号 : int
-教师评语 : String
-评改时间 : Date
-学生学号 : int
-评分项编号 : int
-update()
-delete()
-find()
-insert()
-show()
-count()
}

class TestAverage{
-分数 : double
-实验编号 : int
-学生学号 : int
-getAverage()
}

class lessonAverage{
-分数 : double
-课程编号 : int
-学生学号 : int
-github网址汇总 : String
-getAverage()
}

class yearAndTerm{
-学年学期号: String
-课程编号 : int
-update()
-delete()
-find()
-insert()
}
ScoringItems "1"-right-"1" Score:单个评定项成绩
Teacher "1"--"*" Score:评定成绩 >
Test "1" -left->"1" TestAverage
lesson "1" -->"1" lessonAverage
@enduml